<svg width="179" height="53" viewBox="0 0 179 53" fill="none" xmlns="http://www.w3.org/2000/svg">
<path d="M83.006 19.6933H84.266C84.434 19.6933 84.548 19.6633 84.608 19.6033C84.668 19.5313 84.698 19.4173 84.698 19.2613V8.46135C84.698 8.29335 84.668 8.17935 84.608 8.11935C84.548 8.05935 84.434 8.02935 84.266 8.02935H83.006V7.45335H89.702C90.698 7.45335 91.61 7.72335 92.438 8.26335C93.266 8.79135 93.92 9.53535 94.4 10.4953C94.892 11.4433 95.138 12.5293 95.138 13.7533C95.138 14.9773 94.892 16.0873 94.4 17.0833C93.92 18.0793 93.26 18.8593 92.42 19.4233C91.592 19.9873 90.686 20.2693 89.702 20.2693H83.006V19.6933ZM89.396 19.6933C90.164 19.6933 90.8 19.4293 91.304 18.9013C91.82 18.3613 92.078 17.5813 92.078 16.5613V11.1613C92.078 10.1413 91.82 9.36735 91.304 8.83935C90.8 8.29935 90.164 8.02935 89.396 8.02935H87.794C87.638 8.02935 87.524 8.05935 87.452 8.11935C87.392 8.17935 87.362 8.29335 87.362 8.46135V19.2613C87.362 19.4173 87.392 19.5313 87.452 19.6033C87.524 19.6633 87.638 19.6933 87.794 19.6933H89.396ZM97.1564 19.6933H98.4164C98.5844 19.6933 98.6984 19.6633 98.7584 19.6033C98.8184 19.5313 98.8484 19.4173 98.8484 19.2613V8.46135C98.8484 8.29335 98.8184 8.17935 98.7584 8.11935C98.6984 8.05935 98.5844 8.02935 98.4164 8.02935H97.1564V7.45335H107.272L107.38 11.6293H106.804C106.804 11.5453 106.738 11.2753 106.606 10.8193C106.486 10.3633 106.312 9.94935 106.084 9.57735C105.808 9.09735 105.49 8.71935 105.13 8.44335C104.77 8.16735 104.368 8.02935 103.924 8.02935H101.944C101.788 8.02935 101.674 8.05935 101.602 8.11935C101.542 8.17935 101.512 8.29335 101.512 8.46135V13.4293H102.43C102.754 13.4293 103.054 13.2973 103.33 13.0333C103.606 12.7693 103.822 12.4453 103.978 12.0613C104.146 11.6653 104.23 11.2933 104.23 10.9453H104.806V16.5793H104.23C104.23 16.2193 104.146 15.8473 103.978 15.4633C103.822 15.0673 103.606 14.7373 103.33 14.4733C103.054 14.2093 102.754 14.0773 102.43 14.0773H101.512V19.2613C101.512 19.4173 101.542 19.5313 101.602 19.6033C101.674 19.6633 101.788 19.6933 101.944 19.6933H103.906C104.566 19.6933 105.118 19.4293 105.562 18.9013C106.006 18.3733 106.342 17.7853 106.57 17.1373C106.666 16.8613 106.75 16.5193 106.822 16.1113C106.894 15.7033 106.936 15.4333 106.948 15.3013H107.524L107.416 20.2693H97.1564V19.6933ZM112.392 10.9633H112.32V17.8213C112.32 18.3733 112.53 18.8233 112.95 19.1713C113.382 19.5193 113.928 19.6933 114.588 19.6933V20.2693H109.332V19.6933C109.992 19.6933 110.532 19.5193 110.952 19.1713C111.384 18.8233 111.6 18.3733 111.6 17.8213V10.1353C111.6 10.0033 111.588 9.90735 111.564 9.84735C111.54 9.78735 111.486 9.69735 111.402 9.57735L110.682 8.49735C110.562 8.31735 110.43 8.19735 110.286 8.13735C110.142 8.06535 109.932 8.02935 109.656 8.02935H109.332V7.45335H113.328L119.088 15.6793V9.90135C119.088 9.34935 118.872 8.89935 118.44 8.55135C118.02 8.20335 117.48 8.02935 116.82 8.02935V7.45335H122.076V8.02935C121.416 8.02935 120.87 8.20335 120.438 8.55135C120.018 8.89935 119.808 9.34935 119.808 9.90135V20.5933H119.124L112.392 10.9633ZM125.796 10.6033H125.67V18.0733C125.67 18.6133 125.85 19.0213 126.21 19.2973C126.582 19.5613 127.026 19.6933 127.542 19.6933V20.2693H123.078V19.6933C123.594 19.6933 124.032 19.5613 124.392 19.2973C124.764 19.0213 124.95 18.6133 124.95 18.0733V8.46135C124.95 8.29335 124.92 8.17935 124.86 8.11935C124.8 8.05935 124.686 8.02935 124.518 8.02935H123.078V7.45335H127.38L130.674 16.3093L133.086 7.45335H137.658V8.02935H136.398C136.242 8.02935 136.128 8.05935 136.056 8.11935C135.996 8.17935 135.966 8.29335 135.966 8.46135V19.2613C135.966 19.4173 135.996 19.5313 136.056 19.6033C136.128 19.6633 136.242 19.6933 136.398 19.6933H137.658V20.2693H131.61V19.6933H132.87C133.038 19.6933 133.152 19.6633 133.212 19.6033C133.272 19.5313 133.302 19.4173 133.302 19.2613V9.01935L130.17 20.4853H129.468L125.796 10.6033ZM139.02 19.6933H139.632C139.992 19.6933 140.31 19.5553 140.586 19.2793C140.862 18.9913 141.072 18.6433 141.216 18.2353L145.014 7.12935H145.77L149.622 18.7753C149.826 19.3873 150.18 19.6933 150.684 19.6933H151.404V20.2693H145.086V19.6933H146.382C146.526 19.6933 146.64 19.6393 146.724 19.5313C146.82 19.4113 146.868 19.2733 146.868 19.1173C146.868 18.9853 146.832 18.8113 146.76 18.5953L146.184 16.8673H142.404L142.026 17.9653C141.894 18.3013 141.828 18.6073 141.828 18.8833C141.828 19.0993 141.912 19.2913 142.08 19.4593C142.26 19.6153 142.488 19.6933 142.764 19.6933H143.61V20.2693H139.02V19.6933ZM142.638 16.2013H145.968L144.33 11.2513L142.638 16.2013ZM162.508 20.7013C161.74 20.7013 161.128 20.4733 160.672 20.0173C160.228 19.5613 160.006 18.8893 160.006 18.0013V15.7693C160.006 15.1933 159.862 14.7073 159.574 14.3113C159.298 13.9153 158.866 13.7173 158.278 13.7173H157.27V19.2613C157.27 19.4173 157.3 19.5313 157.36 19.6033C157.432 19.6633 157.546 19.6933 157.702 19.6933H159.286V20.2693H152.914V19.6933H154.174C154.342 19.6933 154.456 19.6633 154.516 19.6033C154.576 19.5313 154.606 19.4173 154.606 19.2613V8.46135C154.606 8.29335 154.576 8.17935 154.516 8.11935C154.456 8.05935 154.342 8.02935 154.174 8.02935H152.914V7.45335H158.746C160.042 7.45335 161.086 7.74135 161.878 8.31735C162.67 8.88135 163.066 9.64935 163.066 10.6213C163.066 11.4493 162.76 12.1033 162.148 12.5833C161.548 13.0633 160.75 13.3633 159.754 13.4833V13.6093C160.69 13.7773 161.41 14.1133 161.914 14.6173C162.418 15.1093 162.67 15.8833 162.67 16.9393V18.9373C162.67 19.4413 162.838 19.6933 163.174 19.6933C163.486 19.6933 163.714 19.4353 163.858 18.9193C164.002 18.4033 164.074 17.7733 164.074 17.0293H164.65C164.65 18.1933 164.494 19.0993 164.182 19.7473C163.87 20.3833 163.312 20.7013 162.508 20.7013ZM158.476 13.1413C159.112 13.1413 159.556 12.9073 159.808 12.4393C160.06 11.9713 160.186 11.3173 160.186 10.4773C160.186 9.66135 160.06 9.04935 159.808 8.64135C159.556 8.23335 159.112 8.02935 158.476 8.02935H157.702C157.546 8.02935 157.432 8.05935 157.36 8.11935C157.3 8.17935 157.27 8.29335 157.27 8.46135V13.1413H158.476ZM166.063 19.6933H167.323C167.491 19.6933 167.605 19.6633 167.665 19.6033C167.725 19.5313 167.755 19.4173 167.755 19.2613V8.46135C167.755 8.29335 167.725 8.17935 167.665 8.11935C167.605 8.05935 167.491 8.02935 167.323 8.02935H166.063V7.45335H171.967V8.02935H170.851C170.695 8.02935 170.581 8.05935 170.509 8.11935C170.449 8.17935 170.419 8.29335 170.419 8.46135V13.7893L173.893 9.75735C174.061 9.56535 174.175 9.40335 174.235 9.27135C174.307 9.12735 174.343 8.96535 174.343 8.78535C174.343 8.56935 174.283 8.38935 174.163 8.24535C174.043 8.10135 173.887 8.02935 173.695 8.02935H173.173V7.45335H177.619V8.02935H176.989C176.737 8.02935 176.473 8.11935 176.197 8.29935C175.933 8.46735 175.699 8.67735 175.495 8.92935L173.083 11.7193L176.881 18.9013C177.037 19.2013 177.187 19.4113 177.331 19.5313C177.475 19.6393 177.685 19.6933 177.961 19.6933H178.447V20.2693H172.795V19.6933H173.515C173.623 19.6933 173.713 19.6573 173.785 19.5853C173.857 19.5013 173.893 19.4113 173.893 19.3153C173.893 19.2433 173.881 19.1653 173.857 19.0813C173.845 18.9853 173.827 18.9133 173.803 18.8653L171.193 13.8973L170.419 14.7793V19.2613C170.419 19.4173 170.449 19.5313 170.509 19.6033C170.581 19.6633 170.695 19.6933 170.851 19.6933H171.967V20.2693H166.063V19.6933ZM82.682 41.6933H83.294C83.654 41.6933 83.972 41.5553 84.248 41.2793C84.524 40.9913 84.734 40.6433 84.878 40.2353L88.676 29.1293H89.432L93.284 40.7753C93.488 41.3873 93.842 41.6933 94.346 41.6933H95.066V42.2693H88.748V41.6933H90.044C90.188 41.6933 90.302 41.6393 90.386 41.5313C90.482 41.4113 90.53 41.2733 90.53 41.1173C90.53 40.9853 90.494 40.8113 90.422 40.5953L89.846 38.8673H86.066L85.688 39.9653C85.556 40.3013 85.49 40.6073 85.49 40.8833C85.49 41.0993 85.574 41.2913 85.742 41.4593C85.922 41.6153 86.15 41.6933 86.426 41.6933H87.272V42.2693H82.682V41.6933ZM86.3 38.2013H89.63L87.992 33.2513L86.3 38.2013ZM96.5763 41.6933H97.8363C98.0043 41.6933 98.1183 41.6633 98.1783 41.6033C98.2383 41.5313 98.2683 41.4173 98.2683 41.2613V30.4613C98.2683 30.2933 98.2383 30.1793 98.1783 30.1193C98.1183 30.0593 98.0043 30.0293 97.8363 30.0293H96.5763V29.4533H102.984C103.824 29.4533 104.568 29.5973 105.216 29.8853C105.876 30.1613 106.386 30.5573 106.746 31.0733C107.118 31.5773 107.304 32.1533 107.304 32.8013C107.304 33.4613 107.118 34.0493 106.746 34.5653C106.386 35.0813 105.876 35.4893 105.216 35.7893C104.568 36.0773 103.824 36.2213 102.984 36.2213H100.932V41.2613C100.932 41.4173 100.962 41.5313 101.022 41.6033C101.094 41.6633 101.208 41.6933 101.364 41.6933H102.948V42.2693H96.5763V41.6933ZM102.714 35.6453C103.338 35.6453 103.776 35.3933 104.028 34.8893C104.292 34.3853 104.424 33.6893 104.424 32.8013C104.424 31.9253 104.298 31.2473 104.046 30.7673C103.794 30.2753 103.35 30.0293 102.714 30.0293H101.364C101.208 30.0293 101.094 30.0593 101.022 30.1193C100.962 30.1793 100.932 30.2933 100.932 30.4613V35.6453H102.714ZM109.215 41.6933H110.475C110.643 41.6933 110.757 41.6633 110.817 41.6033C110.877 41.5313 110.907 41.4173 110.907 41.2613V30.4613C110.907 30.2933 110.877 30.1793 110.817 30.1193C110.757 30.0593 110.643 30.0293 110.475 30.0293H109.215V29.4533H115.623C116.463 29.4533 117.207 29.5973 117.855 29.8853C118.515 30.1613 119.025 30.5573 119.385 31.0733C119.757 31.5773 119.943 32.1533 119.943 32.8013C119.943 33.4613 119.757 34.0493 119.385 34.5653C119.025 35.0813 118.515 35.4893 117.855 35.7893C117.207 36.0773 116.463 36.2213 115.623 36.2213H113.571V41.2613C113.571 41.4173 113.601 41.5313 113.661 41.6033C113.733 41.6633 113.847 41.6933 114.003 41.6933H115.587V42.2693H109.215V41.6933ZM115.353 35.6453C115.977 35.6453 116.415 35.3933 116.667 34.8893C116.931 34.3853 117.063 33.6893 117.063 32.8013C117.063 31.9253 116.937 31.2473 116.685 30.7673C116.433 30.2753 115.989 30.0293 115.353 30.0293H114.003C113.847 30.0293 113.733 30.0593 113.661 30.1193C113.601 30.1793 113.571 30.2933 113.571 30.4613V35.6453H115.353ZM119.332 41.6933H119.944C120.304 41.6933 120.622 41.5553 120.898 41.2793C121.174 40.9913 121.384 40.6433 121.528 40.2353L125.326 29.1293H126.082L129.934 40.7753C130.138 41.3873 130.492 41.6933 130.996 41.6933H131.716V42.2693H125.398V41.6933H126.694C126.838 41.6933 126.952 41.6393 127.036 41.5313C127.132 41.4113 127.18 41.2733 127.18 41.1173C127.18 40.9853 127.144 40.8113 127.072 40.5953L126.496 38.8673H122.716L122.338 39.9653C122.206 40.3013 122.14 40.6073 122.14 40.8833C122.14 41.0993 122.224 41.2913 122.392 41.4593C122.572 41.6153 122.8 41.6933 123.076 41.6933H123.922V42.2693H119.332V41.6933ZM122.95 38.2013H126.28L124.642 33.2513L122.95 38.2013ZM142.821 42.7013C142.053 42.7013 141.441 42.4733 140.985 42.0173C140.541 41.5613 140.319 40.8893 140.319 40.0013V37.7693C140.319 37.1933 140.175 36.7073 139.887 36.3113C139.611 35.9153 139.179 35.7173 138.591 35.7173H137.583V41.2613C137.583 41.4173 137.613 41.5313 137.673 41.6033C137.745 41.6633 137.859 41.6933 138.015 41.6933H139.599V42.2693H133.227V41.6933H134.487C134.655 41.6933 134.769 41.6633 134.829 41.6033C134.889 41.5313 134.919 41.4173 134.919 41.2613V30.4613C134.919 30.2933 134.889 30.1793 134.829 30.1193C134.769 30.0593 134.655 30.0293 134.487 30.0293H133.227V29.4533H139.059C140.355 29.4533 141.399 29.7413 142.191 30.3173C142.983 30.8813 143.379 31.6493 143.379 32.6213C143.379 33.4493 143.073 34.1033 142.461 34.5833C141.861 35.0633 141.063 35.3633 140.067 35.4833V35.6093C141.003 35.7773 141.723 36.1133 142.227 36.6173C142.731 37.1093 142.983 37.8833 142.983 38.9393V40.9373C142.983 41.4413 143.151 41.6933 143.487 41.6933C143.799 41.6933 144.027 41.4353 144.171 40.9193C144.315 40.4033 144.387 39.7733 144.387 39.0293H144.963C144.963 40.1933 144.807 41.0993 144.495 41.7473C144.183 42.3833 143.625 42.7013 142.821 42.7013ZM138.789 35.1413C139.425 35.1413 139.869 34.9073 140.121 34.4393C140.373 33.9713 140.499 33.3173 140.499 32.4773C140.499 31.6613 140.373 31.0493 140.121 30.6413C139.869 30.2333 139.425 30.0293 138.789 30.0293H138.015C137.859 30.0293 137.745 30.0593 137.673 30.1193C137.613 30.1793 137.583 30.2933 137.583 30.4613V35.1413H138.789ZM146.375 41.6933H147.635C147.803 41.6933 147.917 41.6633 147.977 41.6033C148.037 41.5313 148.067 41.4173 148.067 41.2613V30.4613C148.067 30.2933 148.037 30.1793 147.977 30.1193C147.917 30.0593 147.803 30.0293 147.635 30.0293H146.375V29.4533H156.491L156.599 33.6293H156.023C156.023 33.5453 155.957 33.2753 155.825 32.8193C155.705 32.3633 155.531 31.9493 155.303 31.5773C155.027 31.0973 154.709 30.7193 154.349 30.4433C153.989 30.1673 153.587 30.0293 153.143 30.0293H151.163C151.007 30.0293 150.893 30.0593 150.821 30.1193C150.761 30.1793 150.731 30.2933 150.731 30.4613V35.4293H151.649C151.973 35.4293 152.273 35.2973 152.549 35.0333C152.825 34.7693 153.041 34.4453 153.197 34.0613C153.365 33.6653 153.449 33.2933 153.449 32.9453H154.025V38.5793H153.449C153.449 38.2193 153.365 37.8473 153.197 37.4633C153.041 37.0673 152.825 36.7373 152.549 36.4733C152.273 36.2093 151.973 36.0773 151.649 36.0773H150.731V41.2613C150.731 41.4173 150.761 41.5313 150.821 41.6033C150.893 41.6633 151.007 41.6933 151.163 41.6933H153.125C153.785 41.6933 154.337 41.4293 154.781 40.9013C155.225 40.3733 155.561 39.7853 155.789 39.1373C155.885 38.8613 155.969 38.5193 156.041 38.1113C156.113 37.7033 156.155 37.4333 156.167 37.3013H156.743L156.635 42.2693H146.375V41.6933ZM158.803 41.6933H160.063C160.219 41.6933 160.327 41.6573 160.387 41.5853C160.459 41.5013 160.495 41.3753 160.495 41.2073V30.4613C160.495 30.2933 160.465 30.1793 160.405 30.1193C160.345 30.0593 160.231 30.0293 160.063 30.0293H158.803V29.4533H164.851V30.0293H163.591C163.435 30.0293 163.321 30.0593 163.249 30.1193C163.189 30.1793 163.159 30.2933 163.159 30.4613V41.2073C163.159 41.3753 163.189 41.5013 163.249 41.5853C163.321 41.6573 163.435 41.6933 163.591 41.6933H165.409C166.057 41.6933 166.609 41.3573 167.065 40.6853C167.533 40.0133 167.881 39.3053 168.109 38.5613C168.193 38.2853 168.283 37.9433 168.379 37.5353C168.475 37.1273 168.535 36.8573 168.559 36.7253H169.135L168.991 42.2693H158.803V41.6933Z" fill="white"/>
<rect x="0.0328979" y="0.39238" width="73" height="52" fill="#FFFBFB"/>
<rect x="3.00055" y="3.33656" width="67.001" height="45.8656" fill="black"/>
<rect x="0.0328979" y="20.3924" width="73" height="12" fill="#FFFBFB"/>
<rect x="20.0005" y="52.3924" width="52" height="12" transform="rotate(-90 20.0005 52.3924)" fill="#FFFBFB"/>
<path d="M12.176 26.2694C12.176 28.0972 10.8955 29.2694 9.67603 29.2694C8.45652 29.2694 7.17603 28.0972 7.17603 26.2694C7.17603 24.4415 8.45652 23.2694 9.67603 23.2694C10.8955 23.2694 12.176 24.4415 12.176 26.2694Z" stroke="black" stroke-width="3"/>
<path d="M6.5329 26.2694C6.5329 28.0972 5.2524 29.2694 4.0329 29.2694C2.8134 29.2694 1.5329 28.0972 1.5329 26.2694C1.5329 24.4415 2.8134 23.2694 4.0329 23.2694C5.2524 23.2694 6.5329 24.4415 6.5329 26.2694Z" stroke="black" stroke-width="3"/>
<path d="M17.548 26.2694C17.548 28.0972 16.2675 29.2694 15.048 29.2694C13.8285 29.2694 12.548 28.0972 12.548 26.2694C12.548 24.4415 13.8285 23.2694 15.048 23.2694C16.2675 23.2694 17.548 24.4415 17.548 26.2694Z" stroke="black" stroke-width="3"/>
<path d="M28.0005 21.7694C28.0005 23.5972 26.7201 24.7694 25.5005 24.7694C24.281 24.7694 23.0005 23.5972 23.0005 21.7694C23.0005 19.9415 24.281 18.7694 25.5005 18.7694C26.7201 18.7694 28.0005 19.9415 28.0005 21.7694Z" stroke="black" stroke-width="3"/>
<path d="M22.851 26.2694C22.851 28.0972 21.5705 29.2694 20.351 29.2694C19.1315 29.2694 17.851 28.0972 17.851 26.2694C17.851 24.4415 19.1315 23.2694 20.351 23.2694C21.5705 23.2694 22.851 24.4415 22.851 26.2694Z" stroke="black" stroke-width="3"/>
<path d="M28.0005 15.416C28.0005 17.2438 26.7201 18.416 25.5005 18.416C24.281 18.416 23.0005 17.2438 23.0005 15.416C23.0005 13.5882 24.281 12.416 25.5005 12.416C26.7201 12.416 28.0005 13.5882 28.0005 15.416Z" stroke="black" stroke-width="3"/>
<path d="M28.0005 9.31528C28.0005 11.1431 26.7201 12.3153 25.5005 12.3153C24.281 12.3153 23.0005 11.1431 23.0005 9.31528C23.0005 7.48745 24.281 6.31528 25.5005 6.31528C26.7201 6.31528 28.0005 7.48745 28.0005 9.31528Z" stroke="black" stroke-width="3"/>
<path fill-rule="evenodd" clip-rule="evenodd" d="M21.5027 3.36004C21.5718 5.77714 23.3352 7.71273 25.5006 7.71273C27.6659 7.71273 29.4294 5.77714 29.4985 3.36004H26.4955C26.4641 3.81391 26.2904 4.17247 26.0868 4.40162C25.8664 4.64953 25.6539 4.71273 25.5006 4.71273C25.3472 4.71273 25.1347 4.64953 24.9144 4.40162C24.7107 4.17247 24.537 3.81391 24.5056 3.36004H21.5027Z" fill="black"/>
<path d="M49.0511 26.2694C49.0511 28.0972 47.7706 29.2694 46.5511 29.2694C45.3316 29.2694 44.0511 28.0972 44.0511 26.2694C44.0511 24.4415 45.3316 23.2694 46.5511 23.2694C47.7706 23.2694 49.0511 24.4415 49.0511 26.2694Z" stroke="black" stroke-width="3"/>
<path d="M43.9781 26.2694C43.9781 28.0972 42.6976 29.2694 41.4781 29.2694C40.2586 29.2694 38.9781 28.0972 38.9781 26.2694C38.9781 24.4415 40.2586 23.2694 41.4781 23.2694C42.6976 23.2694 43.9781 24.4415 43.9781 26.2694Z" stroke="black" stroke-width="3"/>
<path d="M38.5005 26.2694C38.5005 28.0972 37.2201 29.2694 36.0005 29.2694C34.781 29.2694 33.5005 28.0972 33.5005 26.2694C33.5005 24.4415 34.781 23.2694 36.0005 23.2694C37.2201 23.2694 38.5005 24.4415 38.5005 26.2694Z" stroke="black" stroke-width="3"/>
<path d="M54.4311 26.2694C54.4311 28.0972 53.1506 29.2694 51.9311 29.2694C50.7116 29.2694 49.4311 28.0972 49.4311 26.2694C49.4311 24.4415 50.7116 23.2694 51.9311 23.2694C53.1506 23.2694 54.4311 24.4415 54.4311 26.2694Z" stroke="black" stroke-width="3"/>
<path d="M59.5042 26.2694C59.5042 28.0972 58.2237 29.2694 57.0042 29.2694C55.7846 29.2694 54.5042 28.0972 54.5042 26.2694C54.5042 24.4415 55.7846 23.2694 57.0042 23.2694C58.2237 23.2694 59.5042 24.4415 59.5042 26.2694Z" stroke="black" stroke-width="3"/>
<path d="M64.8841 26.2694C64.8841 28.0972 63.6036 29.2694 62.3841 29.2694C61.1646 29.2694 59.8841 28.0972 59.8841 26.2694C59.8841 24.4415 61.1646 23.2694 62.3841 23.2694C63.6036 23.2694 64.8841 24.4415 64.8841 26.2694Z" stroke="black" stroke-width="3"/>
<path d="M70.0551 26.3924C70.0551 28.2202 68.7746 29.3924 67.5551 29.3924C66.3356 29.3924 65.0551 28.2202 65.0551 26.3924C65.0551 24.5646 66.3356 23.3924 67.5551 23.3924C68.7746 23.3924 70.0551 24.5646 70.0551 26.3924Z" stroke="black" stroke-width="3"/>
<path d="M28.5005 29.3924C28.5005 31.2202 27.2201 32.3924 26.0005 32.3924C24.781 32.3924 23.5005 31.2202 23.5005 29.3924C23.5005 27.5646 24.781 26.3924 26.0005 26.3924C27.2201 26.3924 28.5005 27.5646 28.5005 29.3924Z" stroke="black" stroke-width="3"/>
<path d="M28.5005 35.3924C28.5005 37.2202 27.2201 38.3924 26.0005 38.3924C24.781 38.3924 23.5005 37.2202 23.5005 35.3924C23.5005 33.5646 24.781 32.3924 26.0005 32.3924C27.2201 32.3924 28.5005 33.5646 28.5005 35.3924Z" stroke="black" stroke-width="3"/>
<path d="M28.5005 47.4714C28.5005 49.2992 27.2201 50.4714 26.0005 50.4714C24.781 50.4714 23.5005 49.2992 23.5005 47.4714C23.5005 45.6436 24.781 44.4714 26.0005 44.4714C27.2201 44.4714 28.5005 45.6436 28.5005 47.4714Z" stroke="black" stroke-width="3"/>
<path d="M28.5005 41.4714C28.5005 43.2992 27.2201 44.4714 26.0005 44.4714C24.781 44.4714 23.5005 43.2992 23.5005 41.4714C23.5005 39.6436 24.781 38.4714 26.0005 38.4714C27.2201 38.4714 28.5005 39.6436 28.5005 41.4714Z" stroke="black" stroke-width="3"/>
<path d="M32.9929 26.2694C32.9929 28.0972 31.7124 29.2694 30.4929 29.2694C29.2734 29.2694 27.9929 28.0972 27.9929 26.2694C27.9929 24.4415 29.2734 23.2694 30.4929 23.2694C31.7124 23.2694 32.9929 24.4415 32.9929 26.2694Z" stroke="black" stroke-width="3"/>
<rect x="0.0328979" y="3.36003" width="2.96765" height="73" transform="rotate(-90 0.0328979 3.36003)" fill="#FFFBFB"/>
<rect x="0.0328979" y="52.3924" width="2.96765" height="73" transform="rotate(-90 0.0328979 52.3924)" fill="#FFFBFB"/>
<rect x="0.0328979" y="0.39238" width="2.96765" height="52" fill="#FFFBFB"/>
</svg>
